<svg width="125.732" height="90.186" viewBox="0 0 125.732 90.186" xmlns="http://www.w3.org/2000/svg">
    <g>
        <path
            d="M 0 88.916 L 0 81.836 A 21.154 21.154 0 0 0 2.264 82.403 A 24.978 24.978 0 0 0 3.369 82.593 A 24.607 24.607 0 0 0 5.742 82.824 A 30.347 30.347 0 0 0 7.275 82.861 A 12.135 12.135 0 0 0 10.903 82.33 A 11.055 11.055 0 0 0 12.305 81.787 A 7.489 7.489 0 0 0 15.175 79.393 A 9.979 9.979 0 0 0 15.967 78.125 A 10.146 10.146 0 0 0 16.8 75.909 Q 17.084 74.807 17.217 73.489 A 24.887 24.887 0 0 0 17.334 70.996 L 17.334 0 L 25.684 0 L 25.684 70.361 A 33.227 33.227 0 0 1 25.371 75.056 Q 25.021 77.503 24.28 79.546 A 17.251 17.251 0 0 1 23.462 81.445 A 15.451 15.451 0 0 1 20.069 85.973 A 14.334 14.334 0 0 1 17.163 88.013 A 18.044 18.044 0 0 1 11.799 89.823 A 24.71 24.71 0 0 1 7.471 90.186 A 29.701 29.701 0 0 1 5.447 90.12 Q 4.448 90.052 3.572 89.912 A 16.804 16.804 0 0 1 3.174 89.844 A 17.81 17.81 0 0 1 1.666 89.501 Q 0.933 89.299 0.31 89.048 A 9.888 9.888 0 0 1 0 88.916 Z" />
        <path
            d="M 117.041 0 L 125.732 0 L 106.641 71.387 L 98.291 71.387 L 84.131 23.34 Q 83.496 21.289 82.935 19.214 A 436.313 436.313 0 0 1 82.391 17.187 A 374.681 374.681 0 0 1 81.885 15.259 Q 81.465 13.643 81.172 12.352 A 64.244 64.244 0 0 1 81.079 11.938 A 246.783 246.783 0 0 1 80.931 11.263 Q 80.789 10.611 80.693 10.148 A 53.587 53.587 0 0 1 80.615 9.766 A 19.276 19.276 0 0 1 80.556 10.175 Q 80.483 10.64 80.366 11.288 A 85.833 85.833 0 0 1 80.249 11.914 Q 80.018 13.131 79.679 14.672 A 146.015 146.015 0 0 1 79.565 15.186 A 91.859 91.859 0 0 1 78.989 17.6 A 112.111 112.111 0 0 1 78.589 19.141 Q 78.027 21.24 77.393 23.389 L 63.623 71.387 L 55.273 71.387 L 36.328 0 L 44.971 0 L 56.445 44.775 Q 57.031 47.021 57.544 49.194 A 136.756 136.756 0 0 1 58.366 52.903 A 124.025 124.025 0 0 1 58.472 53.418 A 154.304 154.304 0 0 1 59.223 57.391 A 145.531 145.531 0 0 1 59.229 57.422 Q 59.57 59.375 59.863 61.23 A 66.524 66.524 0 0 1 60.312 58.278 A 76.669 76.669 0 0 1 60.498 57.251 Q 60.889 55.176 61.353 53.027 Q 61.816 50.879 62.378 48.682 A 146.767 146.767 0 0 1 63.574 44.287 L 76.416 0 L 84.961 0 L 98.34 44.629 Q 99.023 46.924 99.609 49.17 A 113.365 113.365 0 0 1 100.541 53.007 A 102.672 102.672 0 0 1 100.659 53.54 A 163.375 163.375 0 0 1 101.099 55.615 A 140.197 140.197 0 0 1 101.489 57.593 A 227.664 227.664 0 0 1 101.837 59.467 A 189 189 0 0 1 102.148 61.23 A 118.032 118.032 0 0 1 102.688 57.825 A 137.79 137.79 0 0 1 102.979 56.201 A 129.836 129.836 0 0 1 103.788 52.197 A 150.044 150.044 0 0 1 104.126 50.684 A 251.285 251.285 0 0 1 105.183 46.252 A 279.451 279.451 0 0 1 105.566 44.727 L 117.041 0 Z" />
    </g>
</svg>