<svg viewBox="0 0 130.2 93" xmlns="http://www.w3.org/2000/svg">
    <style>
        .j {
            fill: blue;
        }

        .w {
            fill: orange;
        }
    </style>
    <g>
        <path
            d="M 59.5 71.4 L 30.7 0 L 38 0 L 62.5 61.2 L 63.1 61.2 L 79.1 21.6 L 70.4 0 L 77.7 0 L 102.1 61 L 102.7 61 L 122.9 0 L 130.2 0 L 101.4 71.4 L 99.2 71.4 L 80.5 24.9 L 61.7 71.4 L 59.5 71.4 Z" />
        <path
            d=" M 7.7 63.8 L 7.7 0 L 14.5 0 L 14.5 63.2 A 73.291 73.291 0 0 1 14.158 70.528 Q 13.412 77.926 11.04 82.72 A 21.84 21.84 0 0 1 11 82.8 Q 7.5 89.8 0.3 93 L 0 92.5 A 12.433 12.433 0 0 0 3.278 89.029 Q 4.319 87.426 5.1 85.357 A 27.112 27.112 0 0 0 5.85 83.05 Q 7.7 76.4 7.7 63.8 Z" />
    </g>
</svg>